<?xml version="1.0" standalone="no"?>
<!DOCTYPE svg PUBLIC "-//W3C//DTD SVG 20010904//EN"
 "http://www.w3.org/TR/2001/REC-SVG-20010904/DTD/svg10.dtd">
<svg version="1.0" xmlns="http://www.w3.org/2000/svg"
 width="600.000000pt" height="600.000000pt" viewBox="0 0 600.000000 600.000000"
 preserveAspectRatio="xMidYMid meet">
<metadata>
Created by potrace 1.14, written by Peter Selinger 2001-2017
</metadata>
<g transform="translate(0.000000,600.000000) scale(0.100000,-0.100000)"
fill="#000000" stroke="none">
<path d="M0 3000 l0 -3000 3000 0 3000 0 0 3000 0 3000 -3000 0 -3000 0 0
-3000z m2010 2590 c320 -14 480 -46 642 -129 243 -124 398 -320 448 -562 36
-175 23 -432 -32 -599 -74 -228 -258 -441 -496 -572 -40 -22 -72 -43 -70 -47
2 -4 84 -110 183 -235 l180 -227 3 235 2 236 410 0 410 0 0 -1053 c0 -664 4
-1084 10 -1137 42 -342 184 -489 490 -506 182 -11 330 35 426 131 61 60 97
127 127 233 22 76 22 85 27 1202 l5 1125 413 3 412 2 0 -1043 c0 -1041 -5
-1222 -36 -1371 -37 -179 -105 -333 -207 -468 -158 -210 -404 -347 -736 -410
-102 -20 -149 -23 -391 -23 -247 0 -287 3 -389 23 -466 94 -765 333 -898 717
-61 176 -66 222 -70 707 l-4 447 -142 3 -141 3 -460 607 -461 607 -147 1 -148
0 0 -610 0 -610 -415 0 -415 0 0 1665 0 1665 633 0 c347 0 724 -5 837 -10z"/>
<path d="M1370 4535 l0 -448 213 7 c322 10 412 28 512 104 102 77 151 175 162
322 11 154 -26 270 -107 344 -94 85 -184 104 -522 113 l-258 6 0 -448z"/>
</g>
</svg>
